CddbId:67119819:[150, 13526, 25376, 40430, 54262, 68498, 82381, 96899, 111066, 124974, 137973, 152881, 167038, 180482, 194653, 208233, 220795, 234881, 248119, 259695, 273160, 286901, 300296, 312213, 324710]:337950:74:67119819 25 150 13526 25376 40430 54262 68498 82381 96899 111066 124974 137973 152881 167038 180482 194653 208233 220795 234881 248119 259695 273160 286901 300296 312213 324710 4506: 25 0 0 0 0 0 0 0 0 0 0 0 0 0 0 0 0 0 0 0 0 0 0 0 0 0 4506
num_tracks: 25
offsets: [150, 13526, 25376, 40430, 54262, 68498, 82381, 96899, 111066, 124974, 137973, 152881, 167038, 180482, 194653, 208233, 220795, 234881, 248119, 259695, 273160, 286901, 300296, 312213, 324710]
extents: [0, 0, 0, 0, 0, 0, 0, 0, 0, 0, 0, 0, 0, 0, 0, 0, 0, 0, 0, 0, 0, 0, 0, 0, 0]
total_length: 4506
cddb: [1729206297, 25, 150, 13526, 25376, 40430, 54262, 68498, 82381, 96899, 111066, 124974, 137973, 152881, 167038, 180482, 194653, 208233, 220795, 234881, 248119, 259695, 273160, 286901, 300296, 312213, 324710, 4506]
musicbrainz: ('25 150 13526 25376 40430 54262 68498 82381 96899 111066 124974 137973 152881 167038 180482 194653 208233 220795 234881 248119 259695 273160 286901 300296 312213 324710 337984', 'EsNHXeK2X_uCWJlGZz0P_S3sS2Y-')

CD record:
Device type    : Removable CD-ROM
Version        : 0
Response Format: 2
Capabilities   : 
Vendor_info    : 'MATSHITA'
Identification : 'BD-MLT UJ240AS  '
Revision       : '1.00'
Device seems to be: Generic mmc2 DVD-R/DVD-RW.
Using generic SCSI-3/mmc   CD-R/CD-RW driver (mmc_cdr).
Driver flags   : MMC-3 SWABAUDIO BURNFREE 
Supported modes: TAO PACKET SAO RAW/R16 RAW/R96P RAW/R96R
first: 1 last 25
track:   1 lba:         0 (        0) 00:02:00 adr: 1 control: 0 mode: 0
track:   2 lba:     13376 (    53504) 03:00:26 adr: 1 control: 0 mode: 0
track:   3 lba:     25226 (   100904) 05:38:26 adr: 1 control: 0 mode: 0
track:   4 lba:     40280 (   161120) 08:59:05 adr: 1 control: 0 mode: 0
track:   5 lba:     54112 (   216448) 12:03:37 adr: 1 control: 0 mode: 0
track:   6 lba:     68348 (   273392) 15:13:23 adr: 1 control: 0 mode: 0
track:   7 lba:     82231 (   328924) 18:18:31 adr: 1 control: 0 mode: 0
track:   8 lba:     96749 (   386996) 21:31:74 adr: 1 control: 0 mode: 0
track:   9 lba:    110916 (   443664) 24:40:66 adr: 1 control: 0 mode: 0
track:  10 lba:    124824 (   499296) 27:46:24 adr: 1 control: 0 mode: 0
track:  11 lba:    137823 (   551292) 30:39:48 adr: 1 control: 0 mode: 0
track:  12 lba:    152731 (   610924) 33:58:31 adr: 1 control: 0 mode: 0
track:  13 lba:    166888 (   667552) 37:07:13 adr: 1 control: 0 mode: 0
track:  14 lba:    180332 (   721328) 40:06:32 adr: 1 control: 0 mode: 0
track:  15 lba:    194503 (   778012) 43:15:28 adr: 1 control: 0 mode: 0
track:  16 lba:    208083 (   832332) 46:16:33 adr: 1 control: 0 mode: 0
track:  17 lba:    220645 (   882580) 49:03:70 adr: 1 control: 0 mode: 0
track:  18 lba:    234731 (   938924) 52:11:56 adr: 1 control: 0 mode: 0
track:  19 lba:    247969 (   991876) 55:08:19 adr: 1 control: 0 mode: 0
track:  20 lba:    259545 (  1038180) 57:42:45 adr: 1 control: 0 mode: 0
track:  21 lba:    273010 (  1092040) 60:42:10 adr: 1 control: 0 mode: 0
track:  22 lba:    286751 (  1147004) 63:45:26 adr: 1 control: 0 mode: 0
track:  23 lba:    300146 (  1200584) 66:43:71 adr: 1 control: 0 mode: 0
track:  24 lba:    312063 (  1248252) 69:22:63 adr: 1 control: 0 mode: 0
track:  25 lba:    324560 (  1298240) 72:09:35 adr: 1 control: 0 mode: 0
track:lout lba:    337834 (  1351336) 75:06:34 adr: 1 control: 0 mode: -1
